<svg aria-hidden="true" style="position:absolute;width:0;height:0;overflow:hidden" xmlns="http://www.w3.org/2000/svg">
  <defs>
    <symbol id="icon-mail" viewBox="0 0 43 32">
      <path d="M37.333 0h-32c-2.2 0-3.98 1.8-3.98 4l-0.020 24c0 2.2 1.8 4 4 4h32c2.2 0 4-1.8 4-4v-24c0-2.2-1.8-4-4-4zM36.533 8.5l-14.14 8.84c-0.64 0.4-1.48 0.4-2.12 0l-14.14-8.84c-0.5-0.32-0.8-0.86-0.8-1.44 0-1.34 1.46-2.14 2.6-1.44l13.4 8.38 13.4-8.38c1.14-0.7 2.6 0.1 2.6 1.44 0 0.58-0.3 1.12-0.8 1.44z"></path>
    </symbol>
    <symbol id="icon-phone" viewBox="0 0 32 32">
      <path d="M28.865 21.822l-4.525-0.517c-1.087-0.125-2.155 0.249-2.921 1.015l-3.278 3.278c-5.041-2.565-9.174-6.68-11.739-11.739l3.296-3.296c0.766-0.766 1.14-1.835 1.015-2.921l-0.517-4.489c-0.214-1.799-1.728-3.153-3.545-3.153h-3.082c-2.013 0-3.687 1.675-3.563 3.687 0.944 15.213 13.111 27.362 28.306 28.306 2.013 0.125 3.687-1.55 3.687-3.563v-3.082c0.018-1.799-1.336-3.313-3.135-3.527z"></path>
    </symbol>
    <symbol id="icon-burger" viewBox="0 0 43 32">
      <path d="M0 0h42.667v5.333h-42.667v-5.333zM0 13.333h42.667v5.333h-42.667v-5.333zM0 26.667h42.667v5.333h-42.667v-5.333z"></path>
    </symbol>
    <symbol id="icon-x" viewBox="0 0 32 32">
      <path d="M27.179 0.918l-11.315 11.312-11.312-11.312-3.771 3.771 11.312 11.312-11.312 11.312 3.771 3.771 11.312-11.312 11.315 11.312 3.771-3.771-11.312-11.312 11.312-11.312-3.771-3.771z"></path>
    </symbol>
    <symbol id="icon-Instagram" viewBox="0 0 32 32">
      <path d="M15.998 6.161c3.206 0 3.585 0.014 4.846 0.071 1.172 0.052 1.804 0.248 2.226 0.412 0.558 0.216 0.961 0.478 1.378 0.895 0.422 0.422 0.679 0.82 0.9 1.378 0.164 0.422 0.361 1.059 0.412 2.226 0.056 1.266 0.071 1.645 0.071 4.847s-0.014 3.585-0.071 4.847c-0.052 1.172-0.248 1.804-0.412 2.227-0.216 0.558-0.478 0.961-0.895 1.377-0.422 0.422-0.82 0.679-1.378 0.9-0.422 0.164-1.060 0.361-2.226 0.412-1.266 0.056-1.645 0.071-4.847 0.071s-3.585-0.014-4.847-0.071c-1.172-0.052-1.804-0.248-2.226-0.412-0.558-0.216-0.961-0.478-1.378-0.895-0.422-0.422-0.679-0.82-0.9-1.378-0.164-0.422-0.361-1.060-0.412-2.226-0.056-1.266-0.071-1.645-0.071-4.847s0.014-3.585 0.071-4.847c0.052-1.172 0.248-1.804 0.412-2.226 0.216-0.558 0.478-0.961 0.895-1.378 0.422-0.422 0.82-0.679 1.378-0.9 0.422-0.164 1.059-0.361 2.226-0.412 1.261-0.056 1.641-0.071 4.847-0.071h0.001zM15.998 4.001c-3.258 0-3.665 0.014-4.945 0.071-1.275 0.056-2.151 0.262-2.91 0.558-0.792 0.309-1.462 0.717-2.127 1.387-0.67 0.666-1.078 1.336-1.387 2.123-0.295 0.764-0.502 1.636-0.558 2.91-0.056 1.285-0.071 1.692-0.071 4.949s0.014 3.665 0.071 4.945c0.056 1.275 0.262 2.151 0.558 2.91 0.31 0.792 0.717 1.462 1.387 2.127 0.665 0.665 1.336 1.078 2.123 1.383 0.764 0.295 1.636 0.502 2.91 0.558 1.279 0.056 1.687 0.071 4.945 0.071s3.666-0.014 4.945-0.071c1.275-0.056 2.151-0.262 2.91-0.558 0.787-0.305 1.458-0.717 2.123-1.383s1.078-1.336 1.383-2.123c0.295-0.764 0.502-1.635 0.558-2.91 0.056-1.279 0.071-1.687 0.071-4.945s-0.014-3.665-0.071-4.945c-0.056-1.275-0.262-2.151-0.558-2.91-0.295-0.797-0.703-1.467-1.373-2.133-0.665-0.665-1.336-1.078-2.123-1.383-0.764-0.295-1.635-0.502-2.91-0.558-1.284-0.061-1.692-0.075-4.949-0.075l-0.001 0.001z"></path>
      <path d="M15.998 9.836c-3.402 0-6.163 2.76-6.163 6.163s2.76 6.163 6.163 6.163c3.403 0 6.163-2.76 6.163-6.163s-2.76-6.163-6.163-6.163zM15.998 19.997c-2.208 0-3.998-1.79-3.998-3.998s1.79-3.998 3.998-3.998c2.208 0 3.998 1.79 3.998 3.998s-1.79 3.998-3.998 3.998z"></path>
      <path d="M23.843 9.592c0 0.795-0.644 1.439-1.439 1.439s-1.439-0.644-1.439-1.439 0.644-1.439 1.439-1.439c0.795 0 1.439 0.644 1.439 1.439z"></path>
    </symbol>
    <symbol id="icon-linkedin" viewBox="0 0 32 32">
      <path d="M29 0h-26c-1.65 0-3 1.35-3 3v26c0 1.65 1.35 3 3 3h26c1.65 0 3-1.35 3-3v-26c0-1.65-1.35-3-3-3zM12 26h-4v-14h4v14zM10 10c-1.106 0-2-0.894-2-2s0.894-2 2-2c1.106 0 2 0.894 2 2s-0.894 2-2 2zM26 26h-4v-8c0-1.106-0.894-2-2-2s-2 0.894-2 2v8h-4v-14h4v2.481c0.825-1.131 2.087-2.481 3.5-2.481 2.488 0 4.5 2.238 4.5 5v9z"></path>
    </symbol>
    <symbol id="icon-star" viewBox="0 0 32 32">
      <path d="M7.226 19.717l-2.384 10.323c-0.074 0.313-0.052 0.64 0.064 0.94s0.318 0.558 0.582 0.74c0.264 0.183 0.577 0.281 0.899 0.283s0.635-0.093 0.902-0.273l8.712-5.808 8.712 5.808c0.273 0.181 0.594 0.274 0.921 0.267s0.644-0.114 0.908-0.307c0.264-0.193 0.463-0.462 0.57-0.771s0.116-0.644 0.028-0.959l-2.926-10.24 7.258-6.531c0.232-0.209 0.399-0.482 0.477-0.785s0.068-0.622-0.033-0.918-0.285-0.556-0.532-0.749c-0.247-0.192-0.544-0.308-0.856-0.333l-9.122-0.726-3.947-8.738c-0.126-0.281-0.33-0.52-0.589-0.688s-0.56-0.257-0.868-0.257c-0.308 0-0.61 0.089-0.868 0.257s-0.463 0.407-0.589 0.688l-3.947 8.738-9.122 0.725c-0.306 0.024-0.599 0.136-0.844 0.323s-0.43 0.439-0.534 0.728c-0.104 0.289-0.123 0.602-0.055 0.902s0.223 0.573 0.443 0.788l6.742 6.571zM11.79 12.795c0.286-0.023 0.56-0.121 0.794-0.286s0.42-0.39 0.537-0.651l2.878-6.37 2.878 6.37c0.117 0.261 0.303 0.486 0.537 0.651s0.508 0.264 0.794 0.286l6.355 0.504-5.234 4.71c-0.454 0.41-0.635 1.040-0.469 1.629l2.005 7.016-5.978-3.986c-0.262-0.176-0.571-0.27-0.887-0.27s-0.625 0.094-0.887 0.27l-6.246 4.165 1.68-7.274c0.062-0.268 0.053-0.546-0.024-0.81s-0.221-0.503-0.418-0.694l-4.861-4.739 6.544-0.522z"></path>
    </symbol>
    <symbol id="icon-star-filler" viewBox="0 0 32 32">
      <path d="M7.226 19.717l-2.384 10.323c-0.074 0.313-0.052 0.64 0.064 0.94s0.318 0.558 0.582 0.74c0.264 0.183 0.577 0.281 0.899 0.283s0.635-0.093 0.902-0.273l8.712-5.808 8.712 5.808c0.273 0.181 0.594 0.274 0.921 0.267s0.644-0.114 0.908-0.307c0.264-0.193 0.463-0.462 0.57-0.771s0.116-0.644 0.028-0.959l-2.926-10.24 7.258-6.531c0.232-0.209 0.399-0.482 0.477-0.785s0.068-0.622-0.033-0.918-0.285-0.556-0.532-0.749c-0.247-0.192-0.544-0.308-0.856-0.333l-9.122-0.726-3.947-8.738c-0.126-0.281-0.33-0.52-0.589-0.688s-0.56-0.257-0.868-0.257c-0.308 0-0.61 0.089-0.868 0.257s-0.463 0.407-0.589 0.688l-3.947 8.738-9.122 0.725c-0.306 0.024-0.599 0.136-0.844 0.323s-0.43 0.439-0.534 0.728c-0.104 0.289-0.123 0.602-0.055 0.902s0.223 0.573 0.443 0.788l6.742 6.571z"></path>
    </symbol>
    <symbol id="icon-youtube" viewBox="0 0 45 32">
      <path d="M43.932 4.7c-0.243-0.902-0.718-1.724-1.377-2.385s-1.481-1.138-2.382-1.383c-3.341-0.917-16.706-0.932-16.706-0.932s-13.363-0.015-16.706 0.862c-0.9 0.256-1.72 0.74-2.38 1.404s-1.138 1.487-1.388 2.389c-0.881 3.341-0.89 10.27-0.89 10.27s-0.009 6.963 0.866 10.27c0.491 1.828 1.931 3.273 3.761 3.765 3.375 0.917 16.704 0.932 16.704 0.932s13.365 0.015 16.706-0.86c0.901-0.245 1.723-0.72 2.384-1.38s1.139-1.481 1.385-2.381c0.883-3.339 0.89-10.266 0.89-10.266s0.043-6.965-0.868-10.306zM19.192 21.344l0.011-12.8 11.108 6.411-11.119 6.389z"></path>
    </symbol>
  </defs>
</svg>