<svg xmlns="http://www.w3.org/2000/svg" viewBox="0 0 104 39" fill="none">
  <path fill="#030a06" d="M17.0842.35543c-.2031.00017-.4172.00035-.6179.0243-2.3332.19462-4.4772 1.18575-6.0041 2.99135-1.66165 1.96496-2.06348 4.03523-2.04402 6.53678l-4.4451-.00679c-.19911-.00018-.40493-.00587-.61366-.01165-.57995-.01606-1.18235-.03274-1.72562.0668-.32763.06008-.61352.21938-.84393.45928-.4034.4199-.4132.9504-.387 1.4938.04135.8568.11494 1.7148.18845 2.5718.03998.4662.07998.9325.11473 1.3981l.73779 9.533.35897 4.6037c.01768.2273.03181.4568.04599.6873.0507.8238.10214 1.6598.31965 2.448.37575 1.3402 1.12047 2.5478 2.14927 3.4858a7.388 7.388 0 0 0 3.16398 1.6952c.99644.2405 2.15408.2133 3.2415.1877.3236-.0076.6411-.015.9462-.0152l5.9841-.0019 5.2263.0023c.2855 0 .5795.007.877.0141.9653.0229 1.9715.0468 2.8736-.1634 1.2691-.2954 2.5533-.9921 3.4798-1.9107.8622-.8552 1.551-1.9971 1.8519-3.1769.2304-.9026.2882-1.8926.3442-2.8529.0181-.3096.036-.6163.0594-.9158l.4905-6.3138.6116-7.7524c.0297-.3829.068-.7699.1063-1.1577.0832-.8406.167-1.6875.1651-2.5182-.0009-.511-.1091-.9877-.4752-1.3671-.252-.2615-.6639-.3892-1.0125-.44606-.5224-.08518-1.0954-.06999-1.6496-.05529-.2049.00544-.4073.0108-.6036.011a385 385 0 0 0-4.1945.01475l-.0601.00088c.0329-2.67893-.5635-4.97772-2.4894-6.93699C21.645 1.31117 19.4306.36512 17.1135.35541zM25.5565 15.636l.0754.0044a.5.5 0 0 0 .0056.0143c.001.0023.0019.0045.0028.0067.0032.008.0062.0149.0088.0209l.0032.0072c.0138.0313.0163.037.0156.0874-.024 3.285-.9033 7.5142-3.2347 9.92-2.1589 2.2278-5.5115 3.321-8.5689 3.3816 1.4241-2.6784 3.7125-5.2185 6.073-7.1051.365-.2915.7471-.555 1.1295-.8187.2462-.1697.4925-.3396.7344-.517.2349-.1724.5511-.4062.5844-.7205.0305-.2894-.1234-.514-.3047-.7208-.2538-.1471-.4396-.2085-.7295-.1235-.4115.1208-.8262.4253-1.2004.7001-.0991.0728-.1955.1435-.2882.2082a25.143 25.143 0 0 0-7.3647 8.1588c-.0615-2.6274.5368-4.8284 2.1482-6.9419 2.4182-3.1717 7.0468-5.0357 10.9102-5.5621M2.06109 11.5465l30.02861-.0004c-.1065 1.0113-.1756 2.0319-.2445 3.0509-.0384.5677-.0768 1.1354-.1216 1.7005l-.8086 10.1322-.3023 3.7337c-.0135.1621-.0258.325-.0381.4883-.0485.6442-.0974 1.2942-.2217 1.9249-.1276.6472-.3754 1.2098-.7111 1.7743a6.26 6.26 0 0 1-.4206.5663c-.8706 1.0402-2.2995 1.815-3.6568 1.9176-.7391.0558-1.4996.0419-2.2529.028-.326-.006-.6509-.012-.9721-.0122l-6.23-.0019-4.9575.0023c-.2391.0001-.4825.0052-.7277.0102-.75184.0156-1.52167.0315-2.24429-.0929-.94781-.1655-1.83357-.583-2.56396-1.209a5.5994 5.5994 0 0 1-1.79904-2.8311c-.20266-.7326-.25319-1.5133-.30281-2.2798-.01246-.1925-.02487-.3842-.03962-.574l-.29485-3.7989zm24.16221 2.329-.0223.0024c-4.5583.5273-9.7476 2.4022-12.694 6.0946-1.8938 2.3731-2.9284 5.4598-2.5867 8.4994.0751.6675.2262 1.3055.4441 1.9402-.0246.063-.0547.1386-.0889.2246-.3741.9402-1.2436 3.1256-.9412 3.772.0875.1867.2656.312.4588.3735.0796.025.1598.0393.2426.049.2554-.042.4915-.0947.6452-.3231.165-.2458.3341-.836.4786-1.3408.0689-.2405.1322-.4616.187-.6171.1873-.532.3999-1.0552.6123-1.5777l.0025-.0061c.0248-.0612.0497-.1224.0745-.1835 3.7588.0111 7.7734-1.1655 10.4926-3.8485 3.041-3.0011 3.8071-7.8404 3.8131-11.9357.0004-.3229-.0218-.706-.258-.953-.1452-.1519-.3638-.1977-.5668-.1932-.0979.0022-.1958.0126-.2934.023M16.7188 1.99782c.1456-.00901.2917-.01715.4373-.01613 1.7854.01252 3.5731.81105 4.8278 2.06934 1.7082 1.71333 2.0577 3.53146 2.0614 5.85697l-6.5416-.00356-7.3609.00915c-.0563-1.99893.2656-3.82469 1.577-5.40308 1.2598-1.5163 3.0578-2.33928 4.999-2.51269"/>
  <path fill="#030a06" d="m25.6319 15.6404-.0754-.0044c-3.8634.5264-8.492 2.3904-10.9102 5.5621-1.6114 2.1135-2.2097 4.3145-2.1482 6.9419a25.142 25.142 0 0 1 7.3647-8.1588c.0927-.0647.1891-.1354.2882-.2082.3742-.2748.7889-.5793 1.2004-.7.2899-.0851.4757-.0237.7295.1234.1813.2068.3352.4314.3047.7209-.0333.3142-.3495.5481-.5844.7204-.2419.1774-.4882.3473-.7344.517-.3824.2637-.7645.5272-1.1295.8187-2.3605 1.8866-4.6489 4.4267-6.073 7.1051 3.0574-.0606 6.41-1.1538 8.5689-3.3816 2.3314-2.4058 3.2107-6.635 3.2347-9.92.0007-.0504-.0018-.0561-.0156-.0874-.0033-.0075-.0074-.0167-.0121-.0281a1.4 1.4 0 0 1-.0083-.021m.5691-1.7625.0223-.0024c.0976-.0104.1955-.0208.2934-.023.203-.0045.4216.0413.5668.1932.2362.247.2584.6301.258.9531-.0061 4.0952-.7721 8.9345-3.8131 11.9356-2.7192 2.683-6.7338 3.8596-10.4926 3.8485-.0248.0611-.0497.1223-.0745.1835l-.0025.0061c-.2124.5225-.425 1.0457-.6123 1.5777-.0548.1555-.1181.3766-.187.6171-.1445.5048-.3136 1.095-.4786 1.3408-.1537.2284-.3898.2811-.6452.3231-.0828-.0097-.163-.024-.2426-.049-.1932-.0615-.3714-.1867-.4588-.3735-.3024-.6464.5671-2.8318.9412-3.772.0342-.086.0643-.1616.0889-.2246-.2179-.6347-.369-1.2727-.4441-1.9402-.3417-3.0395.6929-6.1263 2.5867-8.4994 2.9464-3.6924 8.1357-5.5673 12.694-6.0946"/>
  <path fill="#030a06" d="m26.2232 13.8755-.0223.0024c-4.5583.5273-9.7476 2.4022-12.694 6.0946-1.8937 2.3731-2.9284 5.4599-2.5866 8.4994.075.6675.2262 1.3055.444 1.9402-.0246.063-.0547.1386-.0889.2246-.3741.9402-1.2436 3.1256-.9412 3.772.0875.1868.2656.312.4588.3735.0796.025.1598.0393.2427.049.2553-.042.4914-.0947.6451-.3231.1651-.2458.334-.8357.4786-1.3405.0689-.2406.1322-.4619.187-.6174.1873-.532.3999-1.0552.6123-1.5777.0008-.0021.0017-.0041.0025-.0061.0248-.0612.0497-.1224.0745-.1835 3.7588.0111 7.7734-1.1655 10.4926-3.8485 3.041-3.0011 3.8071-7.8404 3.8131-11.9356.0004-.323-.0218-.7061-.258-.9531-.1451-.1519-.3638-.1977-.5668-.1932-.0979.0022-.1958.0126-.2934.023m-.6668 1.7605.0754.0044q.0045.0117.0084.021c.0047.0115.0087.0205.012.0281.0138.0313.0163.037.0156.0874-.024 3.285-.9033 7.5142-3.2347 9.92-2.1589 2.2278-5.5115 3.321-8.5689 3.3816 1.4241-2.6784 3.7125-5.2185 6.073-7.1051.365-.2915.7472-.555 1.1296-.8187.2462-.1697.4925-.3396.7344-.517.2348-.1723.551-.4062.5843-.7204.0305-.2895-.1234-.5141-.3046-.7209-.2538-.1471-.4397-.2085-.7296-.1234-.4115.1207-.8261.4252-1.2004.7-.0991.0728-.1955.1435-.2882.2082A25.143 25.143 0 0 0 12.498 28.14c-.0614-2.6274.5369-4.8284 2.1483-6.9419 2.4181-3.1717 7.0467-5.0357 10.9101-5.5621M84.9158 25.0073c-.114-3.2287-2.8233-5.7534-6.0516-5.64-3.2292.113-5.755 2.8234-5.641 6.0521.114 3.2293 2.8244 5.7545 6.0531 5.6406 3.2288-.1145 5.7535-2.8244 5.6395-6.0527m-5.8483-3.8848c.9418.0382 1.7051.2646 2.4231.9005.8556.7572 1.3327 1.8512 1.3951 2.9843.063 1.1342-.2939 2.2839-1.0661 3.1287-.7055.7721-1.5855 1.1177-2.6165 1.1693-.9408-.0098-1.717-.1563-2.4592-.7737-.867-.721-1.357-1.7887-1.4493-2.9028-.0955-1.1584.2078-2.356.9768-3.2447.7629-.881 1.6639-1.1842 2.7961-1.2616M68.6574 24.5229c-.3848-3.2107-3.3022-5.4991-6.5119-5.1082-3.2012.3899-5.4823 3.2979-5.0985 6.4998s3.2876 5.4884 6.4902 5.1108c3.2111-.3791 5.5051-3.2922 5.1202-6.5024m-6.3246-3.353c.9365-.0764 1.7851.0222 2.576.5663.8881.6107 1.4466 1.554 1.6313 2.6078.2096 1.1966.0125 2.4762-.7074 3.4732-.6302.8732-1.4177 1.3065-2.4668 1.4736-.9583.049-1.8049-.0093-2.612-.5803a3.9559 3.9559 0 0 1-1.627-2.6026c-.1955-1.1594.0388-2.4937.7309-3.4583.6083-.8474 1.4576-1.3172 2.475-1.4797M97.1799 19.36c-.0289.0011-.0572.0031-.0861.0067-1.4725.1739-2.7986.8867-3.7244 2.0554-1.0563 1.3343-1.4189 3.0261-1.2105 4.6992.1707 1.4695.9227 2.8095 2.0878 3.7219 1.3802 1.0723 3.1302 1.3446 4.8354 1.1115.9869-.1352 2.4699-.6076 3.0999-1.4287.178-.2306.267-.5122.226-.8031-.029-.2042-.118-.3997-.286-.5251-.194-.1439-.452-.1619-.681-.117-.319.0622-.605.2595-.877.4466-.057.0394-.113.0784-.169.1156-1.1912.6189-2.5121.9098-3.8221.4853-.9321-.3069-1.7021-.9758-2.1353-1.8568-.226-.4503-.3384-.9284-.4385-1.4189h5.6204c.2339.0003.4845.0084.7425.0166.667.0214 1.38.0443 1.968-.0609.168-.0299.328-.1197.45-.2383.276-.2693.325-.6504.317-1.0182-.032-1.408-.693-2.797-1.717-3.7497-1.183-1.1001-2.6094-1.5138-4.2001-1.4421m.1733 1.7594a3.492 3.492 0 0 1 2.4164.6122c.8404.5972 1.2814 1.4452 1.4584 2.4432-.712.0086-1.4257.0067-2.1388.0047-.3564-.001-.713-.0019-1.0691-.0016l-3.9529.0052c.1811-.6081.391-1.1605.7799-1.6701.6266-.8206 1.4942-1.2606 2.5061-1.3936"/>
  <path fill="#030a06" d="M65.8773 15.1803c2.1096-.05 4.2305-.0036 6.3415-.0072 1.2023-.0021 2.7383-.0995 3.9055.0206.1877.0196.3373.0728.4802.1976.2032.1774.3383.4451.3455.7164.0062.245-.1439.5261-.3208.6906-.1351.1248-.296.1749-.474.2038-.4858.0783-1.0222.0324-1.5153.0319l-2.6191-.0046-.0011 9.7203c.0037.819.1073 2.6057-.016 3.3025-.0386.2187-.1181.4369-.2687.6045-.1619.18-.3853.2708-.6256.2759-.2517.0057-.4972-.0495-.6788-.2326-.2135-.214-.2919-.5292-.3182-.8216-.0485-.5395-.0041-1.1105.0021-1.6526.0092-.802.002-1.6045.0015-2.4066l.0062-8.7914c-.8711.0042-3.8863.1429-4.5037-.1372-.2255-.1021-.3671-.2599-.4489-.4946-.0873-.2496-.0475-.5158.0786-.7448.1476-.2682.3447-.3832.6291-.4709M52.0782 19.3678c.7836-.0443 1.5492.0057 2.3101.2094.8034.2151 2.0321.6891 2.4475 1.4514.1142.21.1737.4611.0932.6932-.0824.2368-.3073.4178-.5339.5107-.6607.2707-1.488-.6396-2.1096-.8738-1.0108-.3811-2.2265-.36-3.21.0991-.9035.4219-1.5531 1.2208-1.8895 2.1487-.3904 1.0769-.4234 2.4814.0723 3.531.4596.9727 1.3052 1.6525 2.3082 2.0069 1.1478.4059 2.3437.1898 3.4163-.3245.3324-.18.6342-.4198 1.0129-.4982.1957-.0402.3889-.0191.5558.0965.2054.1423.3714.4239.3986.6725.0257.2332-.065.4477-.2096.6267-.6276.7778-2.0244 1.1687-2.975 1.2853-1.6498.2022-3.3683-.1284-4.6886-1.1811-1.2411-.9702-2.0308-2.4061-2.1853-3.9735-.1635-1.5618.2945-3.1251 1.2749-4.3516.9938-1.2219 2.3498-1.9615 3.9117-2.1287M87.3152 16.4161c.033-.0015.0655-.0031.098-.0041.2924-.0093.5864.0691.7932.2847.4931.5153.2971 2.2514.2915 2.9621.6715.0041 2.3055-.2048 2.8089.2429.182.1625.2563.3874.2568.6272.0011.2326-.0593.4554-.2321.6195-.4704.4456-2.1688.2702-2.8347.2661.0062 1.4277-.1867 5.8283.2533 6.9114.7112 1.7516 2.2529.2109 3.1323.6251.1882.0887.3425.2759.4121.4709.099.2775.0108.5256-.1032.7804a7 7 0 0 1-.0588.0639c-.5312.5535-1.5292.6865-2.2622.6968-.8505.0124-1.6546-.132-2.2828-.7612-.4539-.4549-.736-1.079-.8742-1.7-.2136-.9594-.1254-2.0214-.1248-2.9998l.0025-4.086c-.5157-.0005-1.032-.0041-1.5478-.0123-.0851-.0532-.1681-.1078-.2429-.1754-.2038-.1836-.2966-.4575-.3038-.7272-.0062-.226.0629-.4488.2316-.605.4167-.3858 1.3332-.2476 1.8629-.2383-.0015-.7433-.1645-2.076.1161-2.73.1248-.2904.3285-.3956.6081-.5117"/>
  <path fill="#030a06" fill-rule="evenodd" d="M46.3945 16.1377c-.8887-.0873-5.2385-.0564-6.7476-.0342-.2774.0041-.5348.023-.7608.0397-.1923.0141-.3619.0266-.5019.0269 0 0-.6005.1409-.7953.4114-.1273.1772-.1708.402-.2012.6135-.1612 1.1237-.2556 2.2702-.3496 3.4129-.0495.6013-.0989 1.2017-.1579 1.7971l-.5723 5.7762c-.0152.1544-.0416.3652-.0716.6045-.0969.7737-.2312 1.8454-.1443 2.2719.048.2364.1733.4317.3823.5549.2063.1216.44.1908.6748.2306h.0021c.4853-.001 1.2171.0066 2.0348.015 1.6954.0176 6.0063.039 7.0087-.0042.1999-.0087.4117-.0258.6001-.0969.253-.096.461-.2791.5611-.5339.1007-.2563.0784-.5436-.0359-.7912-.1148-.2496-.2701-.3827-.5305-.4662h-8.6646c.1445-1.2757.2738-2.553.3877-3.8317l.1023-1.0394.01-.1031c.0676.0009.1568.0023.2627.0039.8825.0133 5.1779.0442 5.7252-.0374.2008-.0299.3884-.0805.5354-.2285.1902-.1919.2692-.457.2535-.7231-.0133-.2259-.1133-.4719-.285-.6241a.78.78 0 0 0-.4082-.1877c-.5115-.0745-4.3303-.0543-5.2944-.0419-.2586.0033-.4734.0061-.6122.0063l.4392-5.182h4.6759c.2384.0001.4867.0081.7388.0162.6103.0195 1.2428.0398 1.8103-.0482.2018-.0309.3749-.1001.5213-.247.1793-.1801.2774-.4524.2637-.7051-.0141-.2579-.1529-.5034-.3546-.6618-.1537-.1206-.3094-.1748-.502-.1934" clip-rule="evenodd"/>
</svg>
